# xmcd
#
# Track frame offsets: 
#        150
#        14254
#        31254
#        47849
#        68239
#        84529
#        104616
#        124077
#        133285
#        152021
#        167253
#        189802
#        207087
#        221429
#        238193
#        255095
#        271018
#
# Disc length: 3871 seconds
#
# Revision: 0
# Processed by: cddbd v1.5.2PL0 Copyright (c) Steve Scherf et al.
# Submitted via: ExactAudioCopy v1.0b3
#
DISCID=dd0f1d11
DTITLE=Norther - Till Death Unites Us
DYEAR=2006
DGENRE=Metal
TTITLE0=Throwing My Life Away
TTITLE1=Drowning
TTITLE2=Norther
TTITLE3=Everything
TTITLE4=Evil Ladies
TTITLE5=Omen
TTITLE6=Scream
TTITLE7=Fuck You
TTITLE8=Alone in the End
TTITLE9=DIE
TTITLE10=Wasted Years
TTITLE11=The End of Our Lives
TTITLE12=Day Zero
TTITLE13=Ydks
TTITLE14=Hellhole
TTITLE15=Thorn
TTITLE16=Chasm (Remix)
EXTD=
EXTT0=
EXTT1=
EXTT2=
EXTT3=
EXTT4=
EXTT5=
EXTT6=
EXTT7=
EXTT8=
EXTT9=
EXTT10=
EXTT11=
EXTT12=
EXTT13=
EXTT14=
EXTT15=
EXTT16=
PLAYORDER=
